<mxfile host="app.diagrams.net" agent="Mozilla/5.0 (Windows NT 10.0; Win64; x64) AppleWebKit/537.36 (KHTML, like Gecko) Chrome/127.0.0.0 Safari/537.36" version="24.7.8">
  <diagram name="Page-1" id="48HZM81npkZ8VSoMmzUd">
    <mxGraphModel dx="606" dy="315" grid="1" gridSize="10" guides="1" tooltips="1" connect="1" arrows="1" fold="1" page="1" pageScale="1" pageWidth="850" pageHeight="1100" math="0" shadow="0">
      <root>
        <mxCell id="0" />
        <mxCell id="1" parent="0" />
        <mxCell id="ME9PV-bQM1VIJkFycnZ1-24" style="edgeStyle=orthogonalEdgeStyle;rounded=0;orthogonalLoop=1;jettySize=auto;html=1;" edge="1" parent="1" source="ME9PV-bQM1VIJkFycnZ1-25" target="ME9PV-bQM1VIJkFycnZ1-27">
          <mxGeometry relative="1" as="geometry" />
        </mxCell>
        <mxCell id="ME9PV-bQM1VIJkFycnZ1-25" value="Inward Process Module" style="rounded=1;whiteSpace=wrap;html=1;" vertex="1" parent="1">
          <mxGeometry x="30" y="20" width="180" height="30" as="geometry" />
        </mxCell>
        <mxCell id="ME9PV-bQM1VIJkFycnZ1-26" style="edgeStyle=orthogonalEdgeStyle;rounded=0;orthogonalLoop=1;jettySize=auto;html=1;entryX=0.5;entryY=0;entryDx=0;entryDy=0;" edge="1" parent="1" source="ME9PV-bQM1VIJkFycnZ1-27" target="ME9PV-bQM1VIJkFycnZ1-29">
          <mxGeometry relative="1" as="geometry">
            <mxPoint x="160" y="290" as="targetPoint" />
          </mxGeometry>
        </mxCell>
        <mxCell id="ME9PV-bQM1VIJkFycnZ1-35" style="edgeStyle=orthogonalEdgeStyle;rounded=0;orthogonalLoop=1;jettySize=auto;html=1;" edge="1" parent="1" source="ME9PV-bQM1VIJkFycnZ1-27" target="ME9PV-bQM1VIJkFycnZ1-36">
          <mxGeometry relative="1" as="geometry">
            <mxPoint x="290" y="40" as="targetPoint" />
          </mxGeometry>
        </mxCell>
        <mxCell id="ME9PV-bQM1VIJkFycnZ1-27" value="GateIN" style="rounded=1;whiteSpace=wrap;html=1;" vertex="1" parent="1">
          <mxGeometry x="80" y="80" width="80" height="20" as="geometry" />
        </mxCell>
        <mxCell id="ME9PV-bQM1VIJkFycnZ1-28" value="" style="edgeStyle=orthogonalEdgeStyle;rounded=0;orthogonalLoop=1;jettySize=auto;html=1;" edge="1" parent="1" source="ME9PV-bQM1VIJkFycnZ1-34" target="ME9PV-bQM1VIJkFycnZ1-31">
          <mxGeometry relative="1" as="geometry" />
        </mxCell>
        <mxCell id="ME9PV-bQM1VIJkFycnZ1-48" value="" style="edgeStyle=orthogonalEdgeStyle;rounded=0;orthogonalLoop=1;jettySize=auto;html=1;" edge="1" parent="1" source="ME9PV-bQM1VIJkFycnZ1-29">
          <mxGeometry relative="1" as="geometry">
            <mxPoint x="250" y="135.00000000000006" as="targetPoint" />
          </mxGeometry>
        </mxCell>
        <mxCell id="ME9PV-bQM1VIJkFycnZ1-29" value="Document Verification" style="rounded=1;whiteSpace=wrap;html=1;" vertex="1" parent="1">
          <mxGeometry x="65" y="120" width="110" height="30" as="geometry" />
        </mxCell>
        <mxCell id="ME9PV-bQM1VIJkFycnZ1-30" value="" style="edgeStyle=orthogonalEdgeStyle;rounded=0;orthogonalLoop=1;jettySize=auto;html=1;" edge="1" parent="1" source="ME9PV-bQM1VIJkFycnZ1-31" target="ME9PV-bQM1VIJkFycnZ1-32">
          <mxGeometry relative="1" as="geometry" />
        </mxCell>
        <mxCell id="ME9PV-bQM1VIJkFycnZ1-31" value="GRN" style="rounded=1;whiteSpace=wrap;html=1;" vertex="1" parent="1">
          <mxGeometry x="62.5" y="220" width="115" height="20" as="geometry" />
        </mxCell>
        <mxCell id="ME9PV-bQM1VIJkFycnZ1-32" value="Putaway App" style="rounded=1;whiteSpace=wrap;html=1;" vertex="1" parent="1">
          <mxGeometry x="62.5" y="260" width="115" height="20" as="geometry" />
        </mxCell>
        <mxCell id="ME9PV-bQM1VIJkFycnZ1-33" value="" style="edgeStyle=orthogonalEdgeStyle;rounded=0;orthogonalLoop=1;jettySize=auto;html=1;" edge="1" parent="1" source="ME9PV-bQM1VIJkFycnZ1-29" target="ME9PV-bQM1VIJkFycnZ1-34">
          <mxGeometry relative="1" as="geometry">
            <mxPoint x="160" y="280" as="sourcePoint" />
            <mxPoint x="160" y="390" as="targetPoint" />
          </mxGeometry>
        </mxCell>
        <mxCell id="ME9PV-bQM1VIJkFycnZ1-34" value="Unloading" style="rounded=1;whiteSpace=wrap;html=1;" vertex="1" parent="1">
          <mxGeometry x="62.5" y="180" width="115" height="20" as="geometry" />
        </mxCell>
        <mxCell id="ME9PV-bQM1VIJkFycnZ1-40" style="edgeStyle=orthogonalEdgeStyle;rounded=0;orthogonalLoop=1;jettySize=auto;html=1;entryX=0;entryY=0.5;entryDx=0;entryDy=0;" edge="1" parent="1" source="ME9PV-bQM1VIJkFycnZ1-36" target="ME9PV-bQM1VIJkFycnZ1-37">
          <mxGeometry relative="1" as="geometry" />
        </mxCell>
        <mxCell id="ME9PV-bQM1VIJkFycnZ1-36" value="Driver Name" style="rounded=1;whiteSpace=wrap;html=1;" vertex="1" parent="1">
          <mxGeometry x="250" y="80" width="80" height="20" as="geometry" />
        </mxCell>
        <mxCell id="ME9PV-bQM1VIJkFycnZ1-41" style="edgeStyle=orthogonalEdgeStyle;rounded=0;orthogonalLoop=1;jettySize=auto;html=1;entryX=0;entryY=0.5;entryDx=0;entryDy=0;" edge="1" parent="1" source="ME9PV-bQM1VIJkFycnZ1-37" target="ME9PV-bQM1VIJkFycnZ1-39">
          <mxGeometry relative="1" as="geometry" />
        </mxCell>
        <mxCell id="ME9PV-bQM1VIJkFycnZ1-37" value="&lt;p style=&quot;line-height: 120%;&quot;&gt;&lt;font style=&quot;font-size: 10px;&quot;&gt;Driver Mobile No.&lt;/font&gt;&lt;/p&gt;" style="rounded=1;whiteSpace=wrap;html=1;" vertex="1" parent="1">
          <mxGeometry x="350" y="80" width="80" height="20" as="geometry" />
        </mxCell>
        <mxCell id="ME9PV-bQM1VIJkFycnZ1-44" style="edgeStyle=orthogonalEdgeStyle;rounded=0;orthogonalLoop=1;jettySize=auto;html=1;entryX=0;entryY=0.5;entryDx=0;entryDy=0;" edge="1" parent="1" source="ME9PV-bQM1VIJkFycnZ1-38" target="ME9PV-bQM1VIJkFycnZ1-43">
          <mxGeometry relative="1" as="geometry" />
        </mxCell>
        <mxCell id="ME9PV-bQM1VIJkFycnZ1-38" value="&lt;font style=&quot;font-size: 10px;&quot;&gt;Vehicle Type&lt;/font&gt;&amp;nbsp;" style="rounded=1;whiteSpace=wrap;html=1;" vertex="1" parent="1">
          <mxGeometry x="560" y="80" width="80" height="20" as="geometry" />
        </mxCell>
        <mxCell id="ME9PV-bQM1VIJkFycnZ1-39" value="&lt;font style=&quot;font-size: 10px;&quot;&gt;Document Type&lt;/font&gt;" style="rounded=1;whiteSpace=wrap;html=1;" vertex="1" parent="1">
          <mxGeometry x="450" y="80" width="80" height="20" as="geometry" />
        </mxCell>
        <mxCell id="ME9PV-bQM1VIJkFycnZ1-42" style="edgeStyle=orthogonalEdgeStyle;rounded=0;orthogonalLoop=1;jettySize=auto;html=1;entryX=-0.037;entryY=0.48;entryDx=0;entryDy=0;entryPerimeter=0;" edge="1" parent="1" source="ME9PV-bQM1VIJkFycnZ1-39" target="ME9PV-bQM1VIJkFycnZ1-38">
          <mxGeometry relative="1" as="geometry" />
        </mxCell>
        <mxCell id="ME9PV-bQM1VIJkFycnZ1-46" value="" style="edgeStyle=orthogonalEdgeStyle;rounded=0;orthogonalLoop=1;jettySize=auto;html=1;" edge="1" parent="1" source="ME9PV-bQM1VIJkFycnZ1-43" target="ME9PV-bQM1VIJkFycnZ1-45">
          <mxGeometry relative="1" as="geometry" />
        </mxCell>
        <mxCell id="ME9PV-bQM1VIJkFycnZ1-43" value="&lt;span style=&quot;font-size: 10px;&quot;&gt;Vehicle No.&lt;/span&gt;" style="rounded=1;whiteSpace=wrap;html=1;" vertex="1" parent="1">
          <mxGeometry x="660" y="80" width="80" height="20" as="geometry" />
        </mxCell>
        <mxCell id="ME9PV-bQM1VIJkFycnZ1-45" value="&lt;span style=&quot;font-size: 10px;&quot;&gt;Address From&lt;/span&gt;" style="rounded=1;whiteSpace=wrap;html=1;" vertex="1" parent="1">
          <mxGeometry x="760" y="80" width="80" height="20" as="geometry" />
        </mxCell>
        <mxCell id="ME9PV-bQM1VIJkFycnZ1-53" value="" style="edgeStyle=orthogonalEdgeStyle;rounded=0;orthogonalLoop=1;jettySize=auto;html=1;" edge="1" parent="1" source="ME9PV-bQM1VIJkFycnZ1-49" target="ME9PV-bQM1VIJkFycnZ1-52">
          <mxGeometry relative="1" as="geometry" />
        </mxCell>
        <mxCell id="ME9PV-bQM1VIJkFycnZ1-49" value="&lt;font style=&quot;font-size: 10px;&quot;&gt;Document Type&lt;/font&gt;" style="rounded=1;whiteSpace=wrap;html=1;" vertex="1" parent="1">
          <mxGeometry x="250" y="125" width="80" height="20" as="geometry" />
        </mxCell>
        <mxCell id="ME9PV-bQM1VIJkFycnZ1-50" value="&lt;font style=&quot;font-size: 8px;&quot;&gt;Details of Document&lt;/font&gt;" style="rounded=1;whiteSpace=wrap;html=1;" vertex="1" parent="1">
          <mxGeometry x="560" y="125" width="80" height="20" as="geometry" />
        </mxCell>
        <mxCell id="ME9PV-bQM1VIJkFycnZ1-55" value="" style="edgeStyle=orthogonalEdgeStyle;rounded=0;orthogonalLoop=1;jettySize=auto;html=1;" edge="1" parent="1" source="ME9PV-bQM1VIJkFycnZ1-51" target="ME9PV-bQM1VIJkFycnZ1-50">
          <mxGeometry relative="1" as="geometry" />
        </mxCell>
        <mxCell id="ME9PV-bQM1VIJkFycnZ1-51" value="&lt;font style=&quot;font-size: 10px;&quot;&gt;Upload Doc&lt;/font&gt;" style="rounded=1;whiteSpace=wrap;html=1;" vertex="1" parent="1">
          <mxGeometry x="450" y="125" width="80" height="20" as="geometry" />
        </mxCell>
        <mxCell id="ME9PV-bQM1VIJkFycnZ1-54" value="" style="edgeStyle=orthogonalEdgeStyle;rounded=0;orthogonalLoop=1;jettySize=auto;html=1;" edge="1" parent="1" source="ME9PV-bQM1VIJkFycnZ1-52" target="ME9PV-bQM1VIJkFycnZ1-51">
          <mxGeometry relative="1" as="geometry" />
        </mxCell>
        <mxCell id="ME9PV-bQM1VIJkFycnZ1-52" value="&lt;font style=&quot;font-size: 9px;&quot;&gt;Scan Document&lt;/font&gt;" style="rounded=1;whiteSpace=wrap;html=1;" vertex="1" parent="1">
          <mxGeometry x="350" y="125" width="80" height="20" as="geometry" />
        </mxCell>
      </root>
    </mxGraphModel>
  </diagram>
</mxfile>
